<svg xmlns="http://www.w3.org/2000/svg" viewBox="0 0 560 120">
  <defs>
    <linearGradient id="pinGrad" x1="0" y1="0" x2="0" y2="1">
      <stop offset="0" stop-color="#F97B16"/>
      <stop offset="1" stop-color="#EC2456"/>
    </linearGradient>
    <clipPath id="janela">
      <circle cx="48" cy="40" r="24"/>
    </clipPath>
  </defs>

  <g transform="translate(8,6) scale(1.13)">
    <path d="M48 5 C26.5 5 11 21.5 11 42 C11 63.5 39 86.5 45.8 91.2 a3.4 3.4 0 0 0 4.4 0 C57 86.5 85 63.5 85 42 C85 21.5 69.5 5 48 5 Z" fill="url(#pinGrad)"/>
    <circle cx="48" cy="40" r="24" fill="#FFFFFF"/>
    <g clip-path="url(#janela)">
      <path d="M26 24 Q48 30 70 24" fill="none" stroke="#1A2E4F" stroke-width="1.4"/>
      <path d="M31 25.8 l3.6 8 -7.6 -1.2 Z" fill="#2196D9"/>
      <path d="M41 27.6 l3.4 8 -7.4 -0.8 Z" fill="#58A63C"/>
      <path d="M51 27.8 l3.2 8 -7.2 -0.6 Z" fill="#F4B400"/>
      <path d="M61 26.2 l3.2 8 -7.2 -0.9 Z" fill="#E8334D"/>
      <g stroke="#F4B400" stroke-width="1.8" stroke-linecap="round">
        <path d="M30 39 h4 M38 39 h4 M36 33 l-2.5 -2.5 M36 45 l-2.5 2.5 M39 35.5 l2 -2 M33 35.5 l-2 -2 M33 42.5 l-2 2 M39 42.5 l2 2"/>
      </g>
      <g stroke="#E8334D" stroke-width="1.8" stroke-linecap="round">
        <path d="M58 39 h4 M66 39 h4 M64 33 l-2.5 -2.5 M64 45 l-2.5 2.5 M67 35.5 l2 -2 M61 35.5 l-2 -2 M61 42.5 l-2 2 M67 42.5 l2 2"/>
      </g>
      <g fill="#F4B400">
        <circle cx="48" cy="31" r="1.2"/>
        <circle cx="45" cy="34" r="0.9"/>
        <circle cx="51" cy="34" r="0.9"/>
      </g>
      <g fill="#1A2E4F">
        <path d="M45.4 40.5 h5.2 v-1.6 h-1.8 v-2.4 h-1.6 v2.4 h-1.8 Z"/>
        <rect x="44.6" y="40.5" width="6.8" height="24" rx="0.8"/>
        <rect x="46.9" y="45" width="2.2" height="4.6" rx="1.1" fill="#FFFFFF"/>
        <path d="M30 51 l5.5 -5.5 5.5 5.5 v14 h-11 Z"/>
        <path d="M55 51 l5.5 -5.5 5.5 5.5 v14 h-11 Z"/>
        <circle cx="41.5" cy="53.5" r="2.6"/>
        <path d="M37.6 64 v-4.6 a3.9 3.9 0 0 1 7.8 0 V64 Z"/>
        <circle cx="54.5" cy="53.5" r="2.6"/>
        <path d="M50.6 64 v-4.6 a3.9 3.9 0 0 1 7.8 0 V64 Z"/>
      </g>
    </g>
  </g>

  <text x="128" y="78" font-family="system-ui, -apple-system, 'Segoe UI', sans-serif" font-size="52" font-weight="800" letter-spacing="-1" fill="#1A2E4F">acha<tspan fill="#EC2456">festas</tspan></text>
</svg>
