<svg xmlns="http://www.w3.org/2000/svg" viewBox="0 0 340 88">
  <g>
    <path d="M6 10 Q60 26 114 12" fill="none" stroke="#1D3557" stroke-width="1.6"/>
    <path d="M22 14.5 l4.5 10.5 -10.5 -1.5 Z" fill="#E63946"/>
    <path d="M48 19 l4.5 10.5 -10.5 -1.5 Z" fill="#FFB703"/>
    <path d="M74 19.5 l4 10.5 -10 -1 Z" fill="#2A9D8F"/>
    <path d="M98 15.5 l4 10.5 -10 -1 Z" fill="#E63946"/>
  </g>
  <g transform="translate(4,24) scale(0.9)">
    <path d="M32 4 C18.7 4 9 14.2 9 27.2 C9 42 27 56.8 31 59.8 a1.6 1.6 0 0 0 2 0 C37 56.8 55 42 55 27.2 C55 14.2 45.3 4 32 4 Z" fill="#E63946"/>
    <circle cx="32" cy="27" r="13" fill="#FFF8F0"/>
    <path d="M32 17 l2.2 6.2 6.2 2.2 -6.2 2.2 -2.2 6.2 -2.2 -6.2 -6.2 -2.2 6.2 -2.2 Z" fill="#FFB703"/>
    <circle cx="22" cy="20" r="1.6" fill="#2A9D8F"/>
    <circle cx="42" cy="20" r="1.6" fill="#2A9D8F"/>
    <circle cx="24" cy="35" r="1.6" fill="#1D3557"/>
    <circle cx="40" cy="35" r="1.6" fill="#1D3557"/>
  </g>
  <text x="72" y="66" font-family="system-ui, -apple-system, 'Segoe UI', sans-serif" font-size="40" font-weight="800" fill="#1D3557">festas<tspan fill="#E63946">.pt</tspan></text>
</svg>
